# xmcd CD database file
#
# Track frame offsets:
#        150
#        16872
#        28472
#        44267
#        57088
#        74461
#        88362
#        103872
#        116652
#        132121
#        145049
#        157771
#
# Disc length: 2284 seconds
#
# Revision: 0
# Processed by: cddbd v1.5.2PL0 Copyright (c) Steve Scherf et al.
# Submitted via: CUERipper 2.1.6
#
DISCID=a308ea0c
DTITLE=Lee Kernaghan - Backroad Nation
DYEAR=2019
DGENRE=
TTITLE0=Backroad Nation
TTITLE1=Waiting On A Mate
TTITLE2=Take It Down A Backroad
TTITLE3=Round Here
TTITLE4=Watching Lightning
TTITLE5=Where I Wanna Be [with Robby X]
TTITLE6=Live To Ride
TTITLE7=Let There Be Cowgirls
TTITLE8=The Trucks Came Through
TTITLE9=Wheels
TTITLE10=Keep On Truckin'
TTITLE11=Till It Ends [with The Wolfe Brothers]
EXTD=
EXTT0=
EXTT1=
EXTT2=
EXTT3=
EXTT4=
EXTT5=
EXTT6=
EXTT7=
EXTT8=
EXTT9=
EXTT10=
EXTT11=
PLAYORDER=
